<svg width="4500" height="2431" viewBox="0 0 4500 2431" fill="none" xmlns="http://www.w3.org/2000/svg">
<rect width="4500" height="2431" fill="white"/>
<path d="M1089.74 747.069L1089.7 865.736C1089.7 869.711 1087.61 873.39 1084.2 875.427L970.655 943.265C967.088 945.398 962.638 945.398 959.067 943.265L845.542 875.461C842.13 873.423 840.038 869.74 840.038 865.765L840 747.102C840 743.148 842.063 739.481 845.442 737.435L959.009 668.635C962.609 666.456 967.117 666.456 970.713 668.631L1084.29 737.402C1087.67 739.448 1089.74 743.115 1089.74 747.069Z" fill="black" stroke="black" stroke-width="0.11" stroke-miterlimit="10"/>
<path d="M1236.18 1459.74C1106.49 1459.74 1000.91 1356.12 1000.91 1226.43C1000.91 1096.08 1106.49 993.111 1236.18 993.111C1322.21 993.111 1397.81 1038.08 1438.87 1107.16L1352.84 1156.69C1329.38 1117.59 1285.72 1092.17 1236.18 1092.17C1161.24 1092.17 1099.97 1150.83 1099.97 1226.43C1099.97 1301.37 1161.24 1360.68 1236.18 1360.68C1285.72 1360.68 1329.38 1334.61 1352.84 1296.16L1438.87 1345.69C1397.81 1414.12 1322.21 1459.74 1236.18 1459.74ZM1497.8 1454.53V998.324H1770.22V1086.96H1596.86V1176.9H1754.58V1265.53H1596.86V1365.89H1775.43V1454.53H1497.8ZM1853.57 1454.53V998.324H1973.49L2185.95 1320.27V998.324H2285.01V1454.53H2165.09L1952.63 1132.58V1454.53H1853.57ZM2479.56 1454.53V1086.96H2356.39V998.324H2701.8V1086.96H2578.63V1454.53H2479.56ZM2963.34 1459.74C2833.65 1459.74 2728.07 1356.12 2728.07 1226.43C2728.07 1096.08 2833.65 993.111 2963.34 993.111C3093.69 993.111 3199.27 1096.08 3199.27 1226.43C3199.27 1356.12 3093.69 1459.74 2963.34 1459.74ZM2827.13 1226.43C2827.13 1301.37 2888.4 1360.68 2963.34 1360.68C3038.94 1360.68 3100.2 1301.37 3100.2 1226.43C3100.2 1150.83 3038.94 1092.17 2963.34 1092.17C2888.4 1092.17 2827.13 1150.83 2827.13 1226.43ZM3264.57 1454.53V998.324H3426.2C3498.54 998.324 3593.04 1039.38 3593.04 1148.22C3593.04 1237.51 3531.78 1276.61 3469.86 1288.34L3640.61 1454.53H3504.4L3363.63 1298.77V1454.53H3264.57ZM3363.63 1208.83H3420.98C3471.82 1208.83 3493.32 1178.2 3493.32 1148.22C3493.32 1117.59 3471.82 1086.96 3420.98 1086.96H3363.63V1208.83Z" fill="black"/>
</svg>
