<svg xmlns="http://www.w3.org/2000/svg" xmlns:xlink="http://www.w3.org/1999/xlink" width="500" zoomAndPan="magnify" viewBox="0 0 375 374.999991" height="500" preserveAspectRatio="xMidYMid meet" version="1.0"><defs><clipPath id="20865100be"><path d="M 33 240 L 94 240 L 94 249.148438 L 33 249.148438 Z M 33 240 " clip-rule="nonzero"/></clipPath><clipPath id="d79bbf80b0"><path d="M 33 126.148438 L 94 126.148438 L 94 135 L 33 135 Z M 33 126.148438 " clip-rule="nonzero"/></clipPath><clipPath id="dfa42f0a2b"><path d="M 102 126.148438 L 187 126.148438 L 187 135 L 102 135 Z M 102 126.148438 " clip-rule="nonzero"/></clipPath><clipPath id="8e8c960123"><path d="M 102 240 L 187 240 L 187 249.148438 L 102 249.148438 Z M 102 240 " clip-rule="nonzero"/></clipPath><clipPath id="f9c32e016a"><path d="M 269 240 L 276 240 L 276 249.148438 L 269 249.148438 Z M 269 240 " clip-rule="nonzero"/></clipPath><clipPath id="90c62f50d7"><path d="M 283 142 L 341.917969 142 L 341.917969 152 L 283 152 Z M 283 142 " clip-rule="nonzero"/></clipPath><clipPath id="15b09bccad"><path d="M 289 126.148438 L 341.917969 126.148438 L 341.917969 135 L 289 135 Z M 289 126.148438 " clip-rule="nonzero"/></clipPath><clipPath id="d6e36f9837"><path d="M 204 240 L 248 240 L 248 249.148438 L 204 249.148438 Z M 204 240 " clip-rule="nonzero"/></clipPath><clipPath id="b2d4350491"><path d="M 298 224 L 341.917969 224 L 341.917969 233 L 298 233 Z M 298 224 " clip-rule="nonzero"/></clipPath><clipPath id="591b2ec980"><path d="M 298 240 L 341.917969 240 L 341.917969 249.148438 L 298 249.148438 Z M 298 240 " clip-rule="nonzero"/></clipPath><clipPath id="4b5db383dc"><path d="M 204 126.148438 L 257 126.148438 L 257 135 L 204 135 Z M 204 126.148438 " clip-rule="nonzero"/></clipPath></defs><rect x="-37.5" width="450" fill="#ffffff" y="-37.499999" height="449.999989" fill-opacity="1"/><rect x="-37.5" width="450" fill="#ffffff" y="-37.499999" height="449.999989" fill-opacity="1"/><g clip-path="url(#20865100be)"><path fill="#000000" d="M 33.769531 240.578125 L 93.5 240.578125 L 93.5 249.148438 L 33.769531 249.148438 Z M 33.769531 240.578125 " fill-opacity="1" fill-rule="nonzero"/></g><path fill="#000000" d="M 33.769531 224.203125 L 93.5 224.203125 L 93.5 232.777344 L 33.769531 232.777344 Z M 33.769531 224.203125 " fill-opacity="1" fill-rule="nonzero"/><path fill="#000000" d="M 50.863281 207.828125 L 76.503906 207.828125 L 76.503906 216.402344 L 50.863281 216.402344 Z M 50.863281 207.828125 " fill-opacity="1" fill-rule="nonzero"/><path fill="#000000" d="M 50.863281 191.550781 L 76.503906 191.550781 L 76.503906 200.125 L 50.863281 200.125 Z M 50.863281 191.550781 " fill-opacity="1" fill-rule="nonzero"/><path fill="#000000" d="M 50.863281 175.175781 L 76.503906 175.175781 L 76.503906 183.75 L 50.863281 183.75 Z M 50.863281 175.175781 " fill-opacity="1" fill-rule="nonzero"/><path fill="#000000" d="M 50.863281 158.800781 L 76.503906 158.800781 L 76.503906 167.375 L 50.863281 167.375 Z M 50.863281 158.800781 " fill-opacity="1" fill-rule="nonzero"/><path fill="#000000" d="M 33.769531 142.523438 L 93.5 142.523438 L 93.5 151.097656 L 33.769531 151.097656 Z M 33.769531 142.523438 " fill-opacity="1" fill-rule="nonzero"/><g clip-path="url(#d79bbf80b0)"><path fill="#000000" d="M 33.769531 126.148438 L 93.5 126.148438 L 93.5 134.722656 L 33.769531 134.722656 Z M 33.769531 126.148438 " fill-opacity="1" fill-rule="nonzero"/></g><path fill="#000000" d="M 102.046875 232.777344 L 193.179688 232.777344 C 194.714844 230.078125 195.867188 227.1875 196.636719 224.203125 L 102.046875 224.203125 Z M 102.046875 232.777344 " fill-opacity="1" fill-rule="nonzero"/><path fill="#000000" d="M 185.976562 191.550781 L 119.140625 191.550781 L 119.140625 200.125 L 193.179688 200.125 C 191.257812 196.847656 188.855469 193.957031 185.976562 191.550781 Z M 185.976562 191.550781 " fill-opacity="1" fill-rule="nonzero"/><path fill="#000000" d="M 119.140625 175.175781 L 119.140625 183.75 L 185.976562 183.75 C 188.855469 181.339844 191.257812 178.453125 193.082031 175.175781 Z M 119.140625 175.175781 " fill-opacity="1" fill-rule="nonzero"/><path fill="#000000" d="M 193.179688 142.523438 L 102.046875 142.523438 L 102.046875 151.097656 L 196.539062 151.097656 C 195.867188 148.015625 194.714844 145.125 193.179688 142.523438 Z M 193.179688 142.523438 " fill-opacity="1" fill-rule="nonzero"/><g clip-path="url(#dfa42f0a2b)"><path fill="#000000" d="M 164.945312 126.148438 L 102.046875 126.148438 L 102.046875 134.722656 L 186.9375 134.722656 C 180.886719 129.230469 173.011719 126.148438 164.945312 126.148438 Z M 164.945312 126.148438 " fill-opacity="1" fill-rule="nonzero"/></g><path fill="#000000" d="M 119.140625 158.800781 L 144.78125 158.800781 L 144.78125 167.375 L 119.140625 167.375 Z M 119.140625 158.800781 " fill-opacity="1" fill-rule="nonzero"/><path fill="#000000" d="M 168.789062 167.375 L 196.347656 167.375 C 197.117188 164.582031 197.5 161.691406 197.5 158.800781 L 168.789062 158.800781 Z M 168.789062 167.375 " fill-opacity="1" fill-rule="nonzero"/><path fill="#000000" d="M 119.140625 207.828125 L 144.78125 207.828125 L 144.78125 216.402344 L 119.140625 216.402344 Z M 119.140625 207.828125 " fill-opacity="1" fill-rule="nonzero"/><path fill="#000000" d="M 168.789062 207.828125 L 168.789062 216.402344 L 197.5 216.402344 C 197.5 213.511719 197.117188 210.621094 196.347656 207.828125 Z M 168.789062 207.828125 " fill-opacity="1" fill-rule="nonzero"/><g clip-path="url(#8e8c960123)"><path fill="#000000" d="M 102.046875 249.054688 L 164.945312 249.148438 C 173.109375 249.148438 180.984375 246.066406 186.9375 240.578125 L 102.046875 240.578125 Z M 102.046875 249.054688 " fill-opacity="1" fill-rule="nonzero"/></g><g clip-path="url(#f9c32e016a)"><path fill="#000000" d="M 272.789062 249.148438 L 275.765625 240.578125 L 269.8125 240.578125 Z M 272.789062 249.148438 " fill-opacity="1" fill-rule="nonzero"/></g><path fill="#000000" d="M 267.121094 232.777344 L 278.453125 232.777344 L 281.429688 224.203125 L 264.046875 224.203125 Z M 267.121094 232.777344 " fill-opacity="1" fill-rule="nonzero"/><path fill="#000000" d="M 261.359375 216.402344 L 284.214844 216.402344 L 287.191406 207.828125 L 258.382812 207.828125 Z M 261.359375 216.402344 " fill-opacity="1" fill-rule="nonzero"/><path fill="#000000" d="M 255.597656 200.125 L 289.882812 200.125 L 292.953125 191.550781 L 252.621094 191.550781 Z M 255.597656 200.125 " fill-opacity="1" fill-rule="nonzero"/><path fill="#000000" d="M 221.605469 167.375 L 267.699219 167.375 L 264.722656 158.800781 L 221.605469 158.800781 Z M 221.605469 167.375 " fill-opacity="1" fill-rule="nonzero"/><g clip-path="url(#90c62f50d7)"><path fill="#000000" d="M 283.542969 151.097656 L 341.066406 151.097656 L 341.066406 142.523438 L 286.519531 142.523438 Z M 283.542969 151.097656 " fill-opacity="1" fill-rule="nonzero"/></g><g clip-path="url(#15b09bccad)"><path fill="#000000" d="M 292.1875 126.148438 L 289.207031 134.722656 L 341.066406 134.722656 L 341.066406 126.148438 Z M 292.1875 126.148438 " fill-opacity="1" fill-rule="nonzero"/></g><g clip-path="url(#d6e36f9837)"><path fill="#000000" d="M 204.511719 240.578125 L 247.148438 240.578125 L 247.148438 249.148438 L 204.511719 249.148438 Z M 204.511719 240.578125 " fill-opacity="1" fill-rule="nonzero"/></g><path fill="#000000" d="M 204.511719 224.203125 L 247.148438 224.203125 L 247.148438 232.777344 L 204.511719 232.777344 Z M 204.511719 224.203125 " fill-opacity="1" fill-rule="nonzero"/><path fill="#000000" d="M 221.605469 207.828125 L 247.242188 207.828125 L 247.242188 216.402344 L 221.605469 216.402344 Z M 221.605469 207.828125 " fill-opacity="1" fill-rule="nonzero"/><path fill="#000000" d="M 221.605469 191.550781 L 247.242188 191.550781 L 247.242188 200.125 L 221.605469 200.125 Z M 221.605469 191.550781 " fill-opacity="1" fill-rule="nonzero"/><path fill="#000000" d="M 323.972656 158.800781 L 280.855469 158.800781 L 277.878906 167.375 L 323.972656 167.375 Z M 323.972656 158.800781 " fill-opacity="1" fill-rule="nonzero"/><path fill="#000000" d="M 298.425781 183.75 L 323.972656 183.75 L 323.972656 175.175781 L 275.1875 175.175781 L 272.789062 182.113281 L 270.386719 175.175781 L 221.605469 175.175781 L 221.605469 183.75 L 247.148438 183.75 L 247.148438 175.851562 L 249.933594 183.75 L 295.644531 183.75 L 298.425781 175.851562 Z M 298.425781 183.75 " fill-opacity="1" fill-rule="nonzero"/><path fill="#000000" d="M 298.425781 191.550781 L 324.066406 191.550781 L 324.066406 200.125 L 298.425781 200.125 Z M 298.425781 191.550781 " fill-opacity="1" fill-rule="nonzero"/><path fill="#000000" d="M 298.425781 207.828125 L 324.066406 207.828125 L 324.066406 216.402344 L 298.425781 216.402344 Z M 298.425781 207.828125 " fill-opacity="1" fill-rule="nonzero"/><g clip-path="url(#b2d4350491)"><path fill="#000000" d="M 298.425781 224.203125 L 341.066406 224.203125 L 341.066406 232.777344 L 298.425781 232.777344 Z M 298.425781 224.203125 " fill-opacity="1" fill-rule="nonzero"/></g><g clip-path="url(#591b2ec980)"><path fill="#000000" d="M 298.425781 240.578125 L 341.066406 240.578125 L 341.066406 249.148438 L 298.425781 249.148438 Z M 298.425781 240.578125 " fill-opacity="1" fill-rule="nonzero"/></g><path fill="#000000" d="M 262.03125 151.097656 L 259.054688 142.523438 L 204.511719 142.523438 L 204.511719 151.097656 Z M 262.03125 151.097656 " fill-opacity="1" fill-rule="nonzero"/><g clip-path="url(#4b5db383dc)"><path fill="#000000" d="M 256.367188 134.722656 L 253.390625 126.148438 L 204.511719 126.148438 L 204.511719 134.722656 Z M 256.367188 134.722656 " fill-opacity="1" fill-rule="nonzero"/></g></svg>